<svg width="279" height="240" viewBox="0 0 279 240" fill="none" xmlns="http://www.w3.org/2000/svg">
<path d="M133.82 197.051C194.116 197.051 242.996 184.863 242.996 169.829C242.996 154.795 194.116 142.607 133.82 142.607C73.5238 142.607 24.644 154.795 24.644 169.829C24.644 184.863 73.5238 197.051 133.82 197.051Z" fill="url(#paint0_linear_6703_12599)"/>
<path d="M51.8381 153.396V124.167C51.8381 112.877 88.5411 103.726 133.819 103.726C179.097 103.726 215.8 112.877 215.8 124.167V153.396C215.8 154.798 215.235 156.167 214.156 157.489H135.375L126.988 173.767C84.9081 172.902 51.8381 164.112 51.8381 153.396Z" fill="url(#paint1_linear_6703_12599)"/>
<path d="M133.82 144.608C179.097 144.608 215.801 135.456 215.801 124.167C215.801 112.877 179.097 103.726 133.82 103.726C88.5433 103.726 51.8391 112.877 51.8391 124.167C51.8391 135.456 88.5433 144.608 133.82 144.608Z" fill="url(#paint2_linear_6703_12599)"/>
<path d="M135.376 124.167L127.168 144.612V173.698L135.376 157.489V124.167Z" fill="#172CAD"/>
<path d="M215.801 124.167H135.376V157.489H215.801V124.167Z" fill="#132690"/>
<path d="M110.759 61.9438H78.001V115.288H110.759V61.9438Z" fill="url(#paint3_linear_6703_12599)"/>
<path d="M150.769 43.0356H118.011V115.289H150.769V43.0356Z" fill="url(#paint4_linear_6703_12599)"/>
<path d="M191.741 28.0928H158.983V115.288H191.741V28.0928Z" fill="url(#paint5_linear_6703_12599)"/>
<path d="M143.458 115.231L150.77 96.105H216.847C216.846 106.668 183.99 115.231 143.458 115.231Z" fill="url(#paint6_linear_6703_12599)"/>
<path d="M143.458 173.837V115.231C183.99 115.231 216.847 106.668 216.847 96.105V154.711C216.846 165.274 183.99 173.837 143.458 173.837Z" fill="url(#paint7_linear_6703_12599)"/>
<path d="M143.458 142.704C172.808 143.131 198.916 146.722 216.846 152.188L216.847 154.711C216.847 165.274 183.991 173.837 143.458 173.837V142.704Z" fill="url(#paint8_linear_6703_12599)"/>
<path d="M167.206 126.535L183.78 145.355L222.808 103.322L231.602 111.487L183.545 163.245L158.2 134.466L167.206 126.535Z" fill="#4BD8D8"/>
<defs>
<linearGradient id="paint0_linear_6703_12599" x1="24.644" y1="169.829" x2="242.996" y2="169.829" gradientUnits="userSpaceOnUse">
<stop stop-color="#00F59F"/>
<stop offset="1" stop-color="#4DD8DB"/>
</linearGradient>
<linearGradient id="paint1_linear_6703_12599" x1="51.8385" y1="138.747" x2="215.801" y2="138.747" gradientUnits="userSpaceOnUse">
<stop stop-color="#1B2BBB"/>
<stop offset="0.6138" stop-color="#0D6DD2"/>
<stop offset="0.9677" stop-color="#068FDE"/>
</linearGradient>
<linearGradient id="paint2_linear_6703_12599" x1="51.8385" y1="124.167" x2="215.801" y2="124.167" gradientUnits="userSpaceOnUse">
<stop stop-color="#16E1E3"/>
<stop offset="1" stop-color="#0DEDEE"/>
</linearGradient>
<linearGradient id="paint3_linear_6703_12599" x1="80.6777" y1="108.276" x2="105.986" y2="71.9703" gradientUnits="userSpaceOnUse">
<stop stop-color="#1350C8"/>
<stop offset="1" stop-color="#DE37F3"/>
</linearGradient>
<linearGradient id="paint4_linear_6703_12599" x1="135.427" y1="109.531" x2="133.425" y2="50.8698" gradientUnits="userSpaceOnUse">
<stop stop-color="#2AB26B"/>
<stop offset="1" stop-color="#13EDAD"/>
</linearGradient>
<linearGradient id="paint5_linear_6703_12599" x1="174.437" y1="28.8567" x2="176.27" y2="113.781" gradientUnits="userSpaceOnUse">
<stop stop-color="#FFD268"/>
<stop offset="0.2314" stop-color="#FFD268"/>
<stop offset="0.7586" stop-color="#EA728D"/>
</linearGradient>
<linearGradient id="paint6_linear_6703_12599" x1="143.458" y1="105.668" x2="216.846" y2="105.668" gradientUnits="userSpaceOnUse">
<stop stop-color="#0C6ED2"/>
<stop offset="1" stop-color="#13EDAD"/>
</linearGradient>
<linearGradient id="paint7_linear_6703_12599" x1="143.458" y1="134.971" x2="216.846" y2="134.971" gradientUnits="userSpaceOnUse">
<stop stop-color="#1B2BBB"/>
<stop offset="0.6138" stop-color="#0D6DD2"/>
<stop offset="0.9677" stop-color="#068FDE"/>
</linearGradient>
<linearGradient id="paint8_linear_6703_12599" x1="132.125" y1="158.27" x2="185.7" y2="158.27" gradientUnits="userSpaceOnUse">
<stop stop-color="#1B2BBB"/>
<stop offset="0.6138" stop-color="#0D6DD2"/>
<stop offset="0.9677" stop-color="#068FDE"/>
</linearGradient>
</defs>
</svg>
