<svg width="220" height="220" viewBox="0 0 220 220" fill="none" xmlns="http://www.w3.org/2000/svg">
<path d="M109.656 207.703C170.218 207.703 219.313 195.462 219.313 180.361C219.313 165.261 170.218 153.02 109.656 153.02C49.0948 153.02 0 165.261 0 180.361C0 195.462 49.0948 207.703 109.656 207.703Z" fill="url(#paint0_linear_5711_1334)"/>
<path d="M27.3145 163.855V134.498C27.3145 123.158 64.1789 113.967 109.656 113.967C155.133 113.967 191.998 123.158 191.998 134.498V163.855C191.998 165.263 191.43 166.639 190.347 167.966H111.219L102.795 184.316C60.5299 183.447 27.3145 174.618 27.3145 163.855Z" fill="url(#paint1_linear_5711_1334)"/>
<path d="M109.658 155.029C155.134 155.029 192 145.837 192 134.498C192 123.159 155.134 113.967 109.658 113.967C64.182 113.967 27.3164 123.159 27.3164 134.498C27.3164 145.837 64.182 155.029 109.658 155.029Z" fill="url(#paint2_linear_5711_1334)"/>
<path d="M111.221 134.496L102.977 155.031V184.245L111.221 167.965V134.496Z" fill="#172CAD"/>
<path d="M191.998 134.496H111.219V167.965H191.998V134.496Z" fill="#132690"/>
<path d="M86.4939 72H53.5918V125.579H86.4939V72Z" fill="url(#paint3_linear_5711_1334)"/>
<path d="M126.681 53.0098H93.7793V125.581H126.681V53.0098Z" fill="url(#paint4_linear_5711_1334)"/>
<path d="M167.832 38H134.93V125.579H167.832V38Z" fill="url(#paint5_linear_5711_1334)"/>
<path d="M119.338 125.523L126.682 106.312H193.05C193.049 116.922 160.048 125.523 119.338 125.523Z" fill="url(#paint6_linear_5711_1334)"/>
<path d="M119.338 184.386V125.523C160.048 125.523 193.05 116.922 193.05 106.312V165.176C193.049 175.786 160.048 184.386 119.338 184.386Z" fill="url(#paint7_linear_5711_1334)"/>
<path d="M119.338 153.115C148.817 153.544 175.04 157.151 193.049 162.641L193.05 165.175C193.05 175.785 160.049 184.385 119.338 184.385V153.115Z" fill="url(#paint8_linear_5711_1334)"/>
<path d="M143.188 136.876L159.835 155.778L199.035 113.561L207.868 121.761L159.599 173.747L134.143 144.842L143.188 136.876Z" fill="#4BD8D8"/>
<defs>
<linearGradient id="paint0_linear_5711_1334" x1="0" y1="180.361" x2="219.312" y2="180.361" gradientUnits="userSpaceOnUse">
<stop stop-color="#00F59F"/>
<stop offset="1" stop-color="#4DD8DB"/>
</linearGradient>
<linearGradient id="paint1_linear_5711_1334" x1="27.3149" y1="149.142" x2="191.999" y2="149.142" gradientUnits="userSpaceOnUse">
<stop stop-color="#1B2BBB"/>
<stop offset="0.6138" stop-color="#0D6DD2"/>
<stop offset="0.9677" stop-color="#068FDE"/>
</linearGradient>
<linearGradient id="paint2_linear_5711_1334" x1="27.3158" y1="134.498" x2="192" y2="134.498" gradientUnits="userSpaceOnUse">
<stop stop-color="#16E1E3"/>
<stop offset="1" stop-color="#0DEDEE"/>
</linearGradient>
<linearGradient id="paint3_linear_5711_1334" x1="56.2803" y1="118.536" x2="81.6995" y2="82.0706" gradientUnits="userSpaceOnUse">
<stop stop-color="#1350C8"/>
<stop offset="1" stop-color="#DE37F3"/>
</linearGradient>
<linearGradient id="paint4_linear_5711_1334" x1="111.272" y1="119.798" x2="109.261" y2="60.8784" gradientUnits="userSpaceOnUse">
<stop stop-color="#2AB26B"/>
<stop offset="1" stop-color="#13EDAD"/>
</linearGradient>
<linearGradient id="paint5_linear_5711_1334" x1="150.452" y1="38.7673" x2="152.292" y2="124.065" gradientUnits="userSpaceOnUse">
<stop stop-color="#FFD268"/>
<stop offset="0.2314" stop-color="#FFD268"/>
<stop offset="0.7586" stop-color="#EA728D"/>
</linearGradient>
<linearGradient id="paint6_linear_5711_1334" x1="119.337" y1="115.918" x2="193.049" y2="115.918" gradientUnits="userSpaceOnUse">
<stop stop-color="#0C6ED2"/>
<stop offset="1" stop-color="#13EDAD"/>
</linearGradient>
<linearGradient id="paint7_linear_5711_1334" x1="119.337" y1="145.349" x2="193.049" y2="145.349" gradientUnits="userSpaceOnUse">
<stop stop-color="#1B2BBB"/>
<stop offset="0.6138" stop-color="#0D6DD2"/>
<stop offset="0.9677" stop-color="#068FDE"/>
</linearGradient>
<linearGradient id="paint8_linear_5711_1334" x1="107.955" y1="168.75" x2="161.766" y2="168.75" gradientUnits="userSpaceOnUse">
<stop stop-color="#1B2BBB"/>
<stop offset="0.6138" stop-color="#0D6DD2"/>
<stop offset="0.9677" stop-color="#068FDE"/>
</linearGradient>
</defs>
</svg>
